<svg width="28" height="28" viewBox="0 0 28 28" fill="none" xmlns="http://www.w3.org/2000/svg">
<path d="M14 27C21.1797 27 27 21.1797 27 14C27 6.8203 21.1797 1 14 1C6.8203 1 1 6.8203 1 14C1 21.1797 6.8203 27 14 27Z" stroke="white" stroke-miterlimit="10"/>
<path d="M12.2084 17.9926C12.2084 16.8498 12.3462 15.9378 12.6333 15.2567C12.9204 14.5756 13.4716 13.8368 14.31 13.0172C15.1483 12.2091 15.6651 11.6204 15.8948 11.2856C16.2393 10.7661 16.4116 10.2005 16.4116 9.58862C16.4116 8.78055 16.2163 8.16872 15.8144 7.7416C15.4125 7.31447 14.8382 7.10668 14.0688 7.10668C13.3338 7.10668 12.7367 7.31447 12.2888 7.73005C11.8409 8.14564 11.6112 8.71129 11.6112 9.41547H8.48755C8.49903 7.89167 9.01582 6.6911 10.0264 5.80222C11.037 4.91334 12.3807 4.47467 14.0458 4.47467C15.7685 4.47467 17.1006 4.91334 18.0653 5.79068C19.0299 6.66801 19.5123 7.89167 19.5123 9.46164C19.5123 10.8585 18.8577 12.2437 17.56 13.6059L15.9867 15.1643C15.4239 15.8108 15.1368 16.7459 15.1139 17.9926H12.2084ZM11.9902 21.9983C11.9902 21.4904 12.151 21.0864 12.461 20.7747C12.7826 20.463 13.2075 20.3129 13.7473 20.3129C14.2985 20.3129 14.7234 20.4745 15.045 20.7978C15.3665 21.121 15.5158 21.525 15.5158 22.0099C15.5158 22.4832 15.3665 22.8757 15.0564 23.1874C14.7464 23.499 14.31 23.6607 13.7473 23.6607C13.1845 23.6607 12.7481 23.499 12.4496 23.1874C12.1395 22.8641 11.9902 22.4716 11.9902 21.9983Z" fill="white"/>
</svg>
