<svg width="25" height="25" viewBox="0 0 25 25" fill="none" xmlns="http://www.w3.org/2000/svg">
<path d="M12.5 1C18.8515 1 24 6.14846 24 12.5C24 18.8515 18.8515 24 12.5 24C6.14846 24 1 18.8515 1 12.5C1 6.14846 6.14846 1 12.5 1Z" stroke="white" stroke-width="2" stroke-miterlimit="10"/>
<path fill-rule="evenodd" clip-rule="evenodd" d="M9.59961 10.7396C10.8469 10.0762 11.9792 9.7577 12.9611 9.92578C14.0669 10.1204 14.8277 11.1112 14.7392 12.2258C14.5977 14.0481 13.7661 15.7819 13.4742 17.5865C13.2708 18.8162 14.2792 18.8162 15.4115 19.3381C14.1642 20.0015 13.0319 20.32 12.05 20.1519C10.9442 19.9573 10.1835 18.9665 10.2719 17.8519C10.4135 16.0296 11.245 14.2958 11.5369 12.4912C11.7404 11.2615 10.7231 11.2615 9.59961 10.7396Z" fill="white"/>
<path fill-rule="evenodd" clip-rule="evenodd" d="M13.0929 4.80383C14.1013 4.80383 14.924 5.62653 14.924 6.63499C14.924 7.64345 14.1013 8.46614 13.0929 8.46614C12.0844 8.46614 11.2617 7.64345 11.2617 6.63499C11.2617 5.61768 12.0844 4.80383 13.0929 4.80383Z" fill="white"/>
</svg>
