<svg width="24"
     height="31"
     viewBox="0 0 24 31"
     fill="none"
     xmlns="http://www.w3.org/2000/svg">
      <path d="M20.1199 9.01031C20.0581 4.58763 16.4395 1 12.0014 1C7.56322 1 3.94467 4.57217 3.88281 8.99485V9.13402V16.5722C3.88281 17.4227 4.57869 18.1186 5.4292 18.1186C6.27972 18.1186 6.85188 17.4227 6.85188 16.5722V9.02577C6.91374 6.2268 9.2024 3.96907 12.0168 3.96907C14.8313 3.96907 17.1199 6.2268 17.1818 9.02577V16.5722C17.1818 17.4227 17.7539 18.1186 18.6045 18.1186C19.455 18.1186 20.1509 17.4227 20.1509 16.5722V9.13402L20.1199 9.01031Z"
            fill="white"
            stroke="#7D7676" />
      <path d="M2 13.5H22C22.8284 13.5 23.5 14.1716 23.5 15V28.4897C23.5 29.3181 22.8284 29.9897 22 29.9897H2C1.17157 29.9897 0.5 29.3181 0.5 28.4897V15C0.5 14.1716 1.17157 13.5 2 13.5Z"
            fill="white"
            stroke="#7D7676" />
      <path d="M14.8756 19.3402C14.8756 17.7474 13.5921 16.4639 11.9993 16.4639C10.4066 16.4639 9.12305 17.7474 9.12305 19.3402C9.12305 20.6392 9.97356 21.7216 11.1488 22.0928V25.9587C11.1488 26.4381 11.5354 26.8093 11.9993 26.8093C12.4633 26.8093 12.8499 26.4227 12.8499 25.9587V22.0928C14.0251 21.7216 14.8756 20.6237 14.8756 19.3402Z"
            fill="#7D7676" />
</svg>