<svg width="37" height="36" viewBox="0 0 37 36" fill="none" xmlns="http://www.w3.org/2000/svg">
<path d="M6.80841 18.0033C6.80841 11.5087 12.093 6.22482 18.5884 6.22482C21.4512 6.22482 24.077 7.25132 26.1171 8.95558L30.533 4.5403C27.3544 1.71742 23.1688 0 18.5819 0C8.63792 0 0.576172 8.06068 0.576172 18.0033C0.576172 22.5897 2.29382 26.768 5.11708 29.9463L9.53294 25.531C7.83504 23.4846 6.80841 20.8591 6.80841 18.0033Z" fill="white"/>
<path d="M36.4428 15.8318H30.4936H30.1579H22.695L17.0024 21.5237H19.7731H29.8157C28.3152 26.3009 23.8467 29.7752 18.5753 29.7752C15.8245 29.7752 13.2907 28.8211 11.2835 27.2287L6.85449 31.6571C10.0068 34.3616 14.0936 36 18.5687 36C28.5127 36 36.5744 27.9393 36.5744 17.9967C36.5876 17.2663 36.5283 16.5425 36.4428 15.8318Z" fill="white"/>
</svg>
