<svg width="25" height="33" viewBox="0 0 25 33" fill="none" xmlns="http://www.w3.org/2000/svg">
<path d="M12.5002 31.7024C18.24 28.4912 20.1381 26.8203 21.9499 24.1103C24.0814 20.9304 23.7211 15.5523 23.7211 5.22418C14.7789 5.22418 12.5002 1.49081 12.5002 1.49081C12.5002 1.49081 10.2215 5.22418 1.27424 5.22418C1.27424 15.5575 0.918984 20.9304 3.04542 24.1103C4.86228 26.8203 6.76033 28.4912 12.5002 31.7024Z" fill="#C4C4C4"/>
<path d="M12.5002 31.7024C18.24 28.4912 20.1381 26.8203 21.9499 24.1103C24.0814 20.9304 23.7211 15.5523 23.7211 5.22418C14.7789 5.22418 12.5002 1.49081 12.5002 1.49081C12.5002 1.49081 10.2215 5.22418 1.27424 5.22418C1.27424 15.5575 0.918984 20.9304 3.04542 24.1103C4.86228 26.8203 6.76033 28.4912 12.5002 31.7024Z" fill="white"/>
<path d="M12.5002 31.7024C18.24 28.4912 20.1381 26.8203 21.9499 24.1103C24.0814 20.9304 23.7211 15.5523 23.7211 5.22418C14.7789 5.22418 12.5002 1.49081 12.5002 1.49081C12.5002 1.49081 10.2215 5.22418 1.27424 5.22418C1.27424 15.5575 0.918984 20.9304 3.04542 24.1103C4.86228 26.8203 6.76033 28.4912 12.5002 31.7024Z" stroke="#7D7676" stroke-miterlimit="10"/>
<path d="M12.5 28.8358C17.1487 26.2355 18.6865 24.8779 20.1531 22.6849C21.8786 20.1107 21.5894 15.7559 21.5894 7.38588C14.3422 7.38588 12.5 4.36264 12.5 4.36264V28.8358Z" fill="#7D7676"/>
</svg>
