<svg width="88" height="79" viewBox="0 0 88 79" fill="none" xmlns="http://www.w3.org/2000/svg">
<path d="M84.6601 74.4615H4.38281V3.18278C4.38281 2.75193 4.73174 2.39941 5.15821 2.39941C5.58468 2.39941 5.93361 2.75193 5.93361 3.18278V72.8947H84.6601C85.0866 72.8947 85.4355 73.2473 85.4355 73.6781C85.4355 74.109 85.0866 74.4615 84.6601 74.4615Z" fill="#4A4141" fill-opacity="0.5"/>
<path d="M9.53937 8.39991C9.33777 8.39991 9.14392 8.32157 8.98884 8.17273L5.15836 4.28722L1.32012 8.1649C1.01771 8.47041 0.529211 8.47041 0.226805 8.1649C-0.0756016 7.85938 -0.0756016 7.36586 0.226805 7.06035L5.15836 2.07812L10.0899 7.06035C10.3923 7.36586 10.3923 7.85938 10.0899 8.1649C9.93483 8.32157 9.74098 8.39991 9.53937 8.39991Z" fill="#4A4141" fill-opacity="0.5"/>
<path d="M80.2715 78.8954C80.0699 78.8954 79.876 78.817 79.7209 78.6682C79.4185 78.3627 79.4185 77.8692 79.7209 77.5636L83.5592 73.686L79.7209 69.8083C79.4185 69.5028 79.4185 69.0093 79.7209 68.7037C80.0234 68.3982 80.5119 68.3982 80.8143 68.7037L85.7458 73.686L80.8143 78.6682C80.6747 78.817 80.4731 78.8954 80.2715 78.8954Z" fill="#4A4141" fill-opacity="0.5"/>
<path d="M17.2471 61.599C20.2448 61.599 22.675 59.1439 22.675 56.1154C22.675 53.0869 20.2448 50.6318 17.2471 50.6318C14.2494 50.6318 11.8193 53.0869 11.8193 56.1154C11.8193 59.1439 14.2494 61.599 17.2471 61.599Z" fill="#4A4141" fill-opacity="0.5"/>
<path d="M42.7188 36.5624C45.7165 36.5624 48.1466 34.1073 48.1466 31.0788C48.1466 28.0503 45.7165 25.5952 42.7188 25.5952C39.7211 25.5952 37.291 28.0503 37.291 31.0788C37.291 34.1073 39.7211 36.5624 42.7188 36.5624Z" fill="#4A4141" fill-opacity="0.5"/>
<path d="M68.1827 42.6571C71.1804 42.6571 73.6105 40.202 73.6105 37.1735C73.6105 34.145 71.1804 31.6899 68.1827 31.6899C65.185 31.6899 62.7549 34.145 62.7549 37.1735C62.7549 40.202 65.185 42.6571 68.1827 42.6571Z" fill="#4A4141" fill-opacity="0.5"/>
<path d="M17.2473 57.6821C16.8441 57.6821 16.4409 57.5254 16.1385 57.212C15.5414 56.5932 15.5569 55.5983 16.1695 54.9951L42.2462 29.3555L68.5401 35.6537C69.3698 35.8496 69.8893 36.6956 69.6877 37.5417C69.4938 38.3799 68.6564 38.9047 67.819 38.7011L43.1845 32.8023L18.3328 57.2434C18.0304 57.5332 17.6427 57.6821 17.2473 57.6821Z" fill="#4A4141" fill-opacity="0.5"/>
<path d="M17.2471 42.6307C20.2448 42.6307 22.675 40.1756 22.675 37.1472C22.675 34.1187 20.2448 31.6636 17.2471 31.6636C14.2494 31.6636 11.8193 34.1187 11.8193 37.1472C11.8193 40.1756 14.2494 42.6307 17.2471 42.6307Z" fill="#4A4141" fill-opacity="0.5"/>
<path d="M42.7188 17.5941C45.7165 17.5941 48.1466 15.139 48.1466 12.1105C48.1466 9.08203 45.7165 6.62695 42.7188 6.62695C39.7211 6.62695 37.291 9.08203 37.291 12.1105C37.291 15.139 39.7211 17.5941 42.7188 17.5941Z" fill="#4A4141" fill-opacity="0.5"/>
<path d="M68.1827 23.6888C71.1804 23.6888 73.6105 21.2338 73.6105 18.2053C73.6105 15.1768 71.1804 12.7217 68.1827 12.7217C65.185 12.7217 62.7549 15.1768 62.7549 18.2053C62.7549 21.2338 65.185 23.6888 68.1827 23.6888Z" fill="#4A4141" fill-opacity="0.5"/>
<path d="M17.2473 38.7138C16.8441 38.7138 16.4409 38.5571 16.1385 38.2438C15.5414 37.6249 15.5569 36.63 16.1695 36.0269L42.2462 10.3872L68.5401 16.6855C69.3698 16.8813 69.8893 17.7274 69.6877 18.5734C69.4938 19.4116 68.6564 19.9365 67.819 19.7328L43.1845 13.834L18.3328 38.2751C18.0304 38.565 17.6427 38.7138 17.2473 38.7138Z" fill="#4A4141" fill-opacity="0.5"/>
<path d="M19.3096 55.4881L44.7737 30.4517L70.2379 36.5463" stroke="white" stroke-width="4" stroke-miterlimit="10" stroke-linecap="round"/>
<path d="M70.2384 42.0301C73.2361 42.0301 75.6662 39.5751 75.6662 36.5466C75.6662 33.5181 73.2361 31.063 70.2384 31.063C67.2407 31.063 64.8105 33.5181 64.8105 36.5466C64.8105 39.5751 67.2407 42.0301 70.2384 42.0301Z" fill="#A7A1A1" stroke="white" stroke-miterlimit="10"/>
<path d="M44.7735 35.9354C47.7712 35.9354 50.2013 33.4803 50.2013 30.4518C50.2013 27.4233 47.7712 24.9683 44.7735 24.9683C41.7758 24.9683 39.3457 27.4233 39.3457 30.4518C39.3457 33.4803 41.7758 35.9354 44.7735 35.9354Z" fill="#A7A1A1" stroke="white" stroke-miterlimit="10"/>
<path d="M19.3096 60.972C22.3073 60.972 24.7375 58.517 24.7375 55.4885C24.7375 52.46 22.3073 50.0049 19.3096 50.0049C16.3119 50.0049 13.8818 52.46 13.8818 55.4885C13.8818 58.517 16.3119 60.972 19.3096 60.972Z" fill="#A7A1A1" stroke="white" stroke-miterlimit="10"/>
<path d="M19.3096 36.5199L44.7737 11.4834L70.2379 17.578" stroke="white" stroke-width="4" stroke-miterlimit="10" stroke-linecap="round"/>
<path d="M70.2384 23.0619C73.2361 23.0619 75.6662 20.6068 75.6662 17.5783C75.6662 14.5498 73.2361 12.0947 70.2384 12.0947C67.2407 12.0947 64.8105 14.5498 64.8105 17.5783C64.8105 20.6068 67.2407 23.0619 70.2384 23.0619Z" fill="#A7A1A1" stroke="white" stroke-miterlimit="10"/>
<path d="M44.7735 16.9672C47.7712 16.9672 50.2013 14.5121 50.2013 11.4836C50.2013 8.45508 47.7712 6 44.7735 6C41.7758 6 39.3457 8.45508 39.3457 11.4836C39.3457 14.5121 41.7758 16.9672 44.7735 16.9672Z" fill="#A7A1A1" stroke="white" stroke-miterlimit="10"/>
<path d="M19.3096 42.0038C22.3073 42.0038 24.7375 39.5487 24.7375 36.5202C24.7375 33.4917 22.3073 31.0366 19.3096 31.0366C16.3119 31.0366 13.8818 33.4917 13.8818 36.5202C13.8818 39.5487 16.3119 42.0038 19.3096 42.0038Z" fill="#A7A1A1" stroke="white" stroke-miterlimit="10"/>
<path d="M85.9012 72.5032H6.3916V2" stroke="white" stroke-width="2" stroke-miterlimit="10" stroke-linecap="round"/>
<path d="M2.01074 6.43387L6.39176 2L10.7805 6.43387" stroke="white" stroke-width="2" stroke-miterlimit="10" stroke-linecap="round"/>
<path d="M81.5127 68.0693L85.9015 72.5032L81.5127 76.9292" stroke="white" stroke-width="2" stroke-miterlimit="10" stroke-linecap="round"/>
<path d="M44.1144 45.1793C51.8228 45.1793 58.0717 38.8662 58.0717 31.0787C58.0717 23.2911 51.8228 16.978 44.1144 16.978C36.4061 16.978 30.1572 23.2911 30.1572 31.0787C30.1572 38.8662 36.4061 45.1793 44.1144 45.1793Z" stroke="#4A4141" stroke-opacity="0.5" stroke-width="6" stroke-miterlimit="10"/>
<path d="M52.9955 39.0052L46.2402 42.8516L56.158 60.6299L62.9133 56.7836L52.9955 39.0052Z" fill="#4A4141" fill-opacity="0.5"/>
<path d="M64.0776 58.8724L57.3223 62.7188L60.7412 68.8473L67.4964 65.001L64.0776 58.8724Z" fill="#4A4141" fill-opacity="0.5"/>
<path d="M55.3783 38.5526L48.623 42.3989L57.5319 58.3687L64.2872 54.5224L55.3783 38.5526Z" fill="#A7A1A1" stroke="white" stroke-miterlimit="10"/>
<path d="M45.5176 45.2574C39.8261 45.2574 34.2898 42.2414 31.3045 36.8832C26.9002 28.979 29.6761 18.9284 37.4922 14.4788C41.2839 12.3246 45.6727 11.7841 49.8598 12.9669C54.047 14.1498 57.5285 16.9073 59.6686 20.738C61.801 24.5686 62.336 29.0025 61.1652 33.2327C59.9943 37.4629 57.2649 40.9802 53.4732 43.1423C50.9686 44.5759 48.2237 45.2574 45.5176 45.2574ZM45.4711 17.0561C43.4938 17.0561 41.5475 17.5653 39.7796 18.5759C37.0735 20.1191 35.1194 22.6337 34.2898 25.6497C33.4523 28.6735 33.8323 31.8461 35.3598 34.5801C38.508 40.2282 45.6106 42.2257 51.2013 39.0453C53.9074 37.502 55.8537 34.9953 56.6911 31.9715C57.5285 28.9477 57.1486 25.775 55.621 23.0411C54.0935 20.3071 51.6122 18.333 48.6192 17.4948C47.5801 17.205 46.5256 17.0561 45.4711 17.0561Z" fill="white"/>
<path d="M65.4506 56.6112L58.6953 60.4575L62.1142 66.5861L68.8695 62.7398L65.4506 56.6112Z" fill="#A7A1A1" stroke="white" stroke-miterlimit="10"/>
</svg>
