<svg width="88" height="79" viewBox="0 0 88 79" fill="none" xmlns="http://www.w3.org/2000/svg">
<path d="M84.6601 74.4616H4.38281V3.1829C4.38281 2.75205 4.73174 2.39954 5.15821 2.39954C5.58468 2.39954 5.93361 2.75205 5.93361 3.1829V72.8949H84.6601C85.0866 72.8949 85.4355 73.2474 85.4355 73.6782C85.4355 74.1091 85.0866 74.4616 84.6601 74.4616Z" fill="#4A4141" fill-opacity="0.5"/>
<path d="M9.53937 8.40015C9.33777 8.40015 9.14392 8.32182 8.98884 8.17298L5.15836 4.28747L1.32012 8.16514C1.01771 8.47066 0.529211 8.47066 0.226805 8.16514C-0.0756016 7.85963 -0.0756016 7.36611 0.226805 7.06059L5.15836 2.07837L10.0899 7.06059C10.3923 7.36611 10.3923 7.85963 10.0899 8.16514C9.93483 8.32182 9.74098 8.40015 9.53937 8.40015Z" fill="#4A4141" fill-opacity="0.5"/>
<path d="M80.2715 78.8955C80.0699 78.8955 79.876 78.8171 79.7209 78.6683C79.4185 78.3628 79.4185 77.8693 79.7209 77.5638L83.5592 73.6861L79.7209 69.8084C79.4185 69.5029 79.4185 69.0094 79.7209 68.7039C80.0234 68.3984 80.5119 68.3984 80.8143 68.7039L85.7458 73.6861L80.8143 78.6683C80.6747 78.8171 80.4731 78.8955 80.2715 78.8955Z" fill="#4A4141" fill-opacity="0.5"/>
<path d="M17.2471 61.5987C20.2448 61.5987 22.675 59.1437 22.675 56.1152C22.675 53.0867 20.2448 50.6316 17.2471 50.6316C14.2494 50.6316 11.8193 53.0867 11.8193 56.1152C11.8193 59.1437 14.2494 61.5987 17.2471 61.5987Z" fill="#4A4141" fill-opacity="0.5"/>
<path d="M42.7188 36.5623C45.7165 36.5623 48.1466 34.1072 48.1466 31.0787C48.1466 28.0502 45.7165 25.5951 42.7188 25.5951C39.7211 25.5951 37.291 28.0502 37.291 31.0787C37.291 34.1072 39.7211 36.5623 42.7188 36.5623Z" fill="#4A4141" fill-opacity="0.5"/>
<path d="M68.1827 42.6569C71.1804 42.6569 73.6105 40.2018 73.6105 37.1733C73.6105 34.1448 71.1804 31.6897 68.1827 31.6897C65.185 31.6897 62.7549 34.1448 62.7549 37.1733C62.7549 40.2018 65.185 42.6569 68.1827 42.6569Z" fill="#4A4141" fill-opacity="0.5"/>
<path d="M17.2473 57.6818C16.8441 57.6818 16.4409 57.5252 16.1385 57.2118C15.5414 56.5929 15.5569 55.5981 16.1695 54.9949L42.2462 29.3552L68.5401 35.6535C69.3698 35.8493 69.8893 36.6954 69.6877 37.5414C69.4938 38.3796 68.6564 38.9045 67.819 38.7008L43.1845 32.802L18.3328 57.2431C18.0304 57.533 17.6427 57.6818 17.2473 57.6818Z" fill="#4A4141" fill-opacity="0.5"/>
<path d="M19.3096 55.4884L44.7737 30.4519L70.2379 36.5465" stroke="white" stroke-width="4" stroke-miterlimit="10" stroke-linecap="round"/>
<path d="M70.2384 42.0301C73.2361 42.0301 75.6662 39.5751 75.6662 36.5466C75.6662 33.5181 73.2361 31.063 70.2384 31.063C67.2407 31.063 64.8105 33.5181 64.8105 36.5466C64.8105 39.5751 67.2407 42.0301 70.2384 42.0301Z" fill="#A7A1A1" stroke="white" stroke-miterlimit="10"/>
<path d="M44.7735 35.9355C47.7712 35.9355 50.2013 33.4805 50.2013 30.452C50.2013 27.4235 47.7712 24.9684 44.7735 24.9684C41.7758 24.9684 39.3457 27.4235 39.3457 30.452C39.3457 33.4805 41.7758 35.9355 44.7735 35.9355Z" fill="#A7A1A1" stroke="white" stroke-miterlimit="10"/>
<path d="M19.3096 60.972C22.3073 60.972 24.7375 58.517 24.7375 55.4885C24.7375 52.46 22.3073 50.0049 19.3096 50.0049C16.3119 50.0049 13.8818 52.46 13.8818 55.4885C13.8818 58.517 16.3119 60.972 19.3096 60.972Z" fill="#A7A1A1" stroke="white" stroke-miterlimit="10"/>
<path d="M85.9012 72.5032H6.3916V2" stroke="white" stroke-width="2" stroke-miterlimit="10" stroke-linecap="round"/>
<path d="M2.01074 6.43387L6.39176 2L10.7805 6.43387" stroke="white" stroke-width="2" stroke-miterlimit="10" stroke-linecap="round"/>
<path d="M81.5127 68.0693L85.9015 72.5032L81.5127 76.9292" stroke="white" stroke-width="2" stroke-miterlimit="10" stroke-linecap="round"/>
<path d="M44.1144 45.1793C51.8228 45.1793 58.0717 38.8662 58.0717 31.0787C58.0717 23.2911 51.8228 16.978 44.1144 16.978C36.4061 16.978 30.1572 23.2911 30.1572 31.0787C30.1572 38.8662 36.4061 45.1793 44.1144 45.1793Z" stroke="#4A4141" stroke-opacity="0.5" stroke-width="6" stroke-miterlimit="10"/>
<path d="M52.9955 39.0053L46.2402 42.8517L56.158 60.6301L62.9133 56.7837L52.9955 39.0053Z" fill="#4A4141" fill-opacity="0.5"/>
<path d="M64.0776 58.8727L57.3223 62.719L60.7412 68.8476L67.4964 65.0012L64.0776 58.8727Z" fill="#4A4141" fill-opacity="0.5"/>
<path d="M55.3783 38.5527L48.623 42.399L57.5319 58.3689L64.2872 54.5225L55.3783 38.5527Z" fill="#A7A1A1" stroke="white" stroke-miterlimit="10"/>
<path d="M45.5176 45.2576C39.8261 45.2576 34.2898 42.2417 31.3045 36.8834C26.9002 28.9792 29.6761 18.9286 37.4922 14.4791C41.2839 12.3248 45.6727 11.7843 49.8598 12.9672C54.047 14.1501 57.5285 16.9075 59.6686 20.7382C61.801 24.5689 62.336 29.0027 61.1652 33.2329C59.9943 37.4631 57.2649 40.9804 53.4732 43.1425C50.9686 44.5761 48.2237 45.2576 45.5176 45.2576ZM45.4711 17.0564C43.4938 17.0564 41.5475 17.5656 39.7796 18.5761C37.0735 20.1193 35.1194 22.634 34.2898 25.6499C33.4523 28.6737 33.8323 31.8464 35.3598 34.5803C38.508 40.2284 45.6106 42.226 51.2013 39.0455C53.9074 37.5023 55.8537 34.9955 56.6911 31.9717C57.5285 28.9479 57.1486 25.7753 55.621 23.0413C54.0935 20.3073 51.6122 18.3333 48.6192 17.4951C47.5801 17.2052 46.5256 17.0564 45.4711 17.0564Z" fill="white"/>
<path d="M65.4506 56.6113L58.6953 60.4576L62.1142 66.5862L68.8695 62.7399L65.4506 56.6113Z" fill="#A7A1A1" stroke="white" stroke-miterlimit="10"/>
</svg>
