<svg width="475" height="109" viewBox="0 0 475 109" fill="none" xmlns="http://www.w3.org/2000/svg">
<g clip-path="url(#clip0)">
<path d="M252.304 25.6937V29.3056C252.304 29.3056 252.29 29.3056 252.29 29.292C250.991 28.4984 249.624 27.828 248.174 27.2808C247.969 27.1987 247.764 27.1303 247.559 27.0482C247.176 26.9114 246.793 26.7882 246.41 26.6788C245.822 26.5009 245.234 26.3504 244.632 26.2273C244.413 26.1863 244.194 26.1452 243.975 26.1179C243.456 26.0221 242.922 25.94 242.375 25.8716C242.157 25.8442 241.938 25.8169 241.719 25.8032C240.98 25.7348 240.242 25.6937 239.49 25.6937C225.896 25.6937 214.873 36.721 214.873 50.3203C214.873 63.9197 225.896 74.9469 239.49 74.9469C240.242 74.9469 240.967 74.9059 241.692 74.8374C241.924 74.8238 242.143 74.7964 242.375 74.769C242.895 74.7006 243.415 74.6322 243.921 74.5365C244.194 74.4817 244.468 74.4407 244.728 74.386C245.275 74.2628 245.822 74.126 246.369 73.9618C246.765 73.8387 247.162 73.7156 247.559 73.5788C247.75 73.5103 247.941 73.4419 248.133 73.3735C249.583 72.8263 250.977 72.1422 252.29 71.3487V73.2094H264.12V61.2107V49.3763V37.5419V25.7074V13.873V2.1343H252.29V25.6937H252.304ZM239.517 64.0838C231.913 64.0838 225.759 57.9135 225.759 50.3203C225.759 42.7134 231.927 36.5568 239.517 36.5568C247.121 36.5568 253.275 42.7271 253.275 50.3203C253.289 57.9272 247.121 64.0838 239.517 64.0838Z" fill="#898989"/>
<path d="M447.731 25.598C434.137 25.598 423.114 36.6252 423.114 50.2246C423.114 63.8239 434.137 74.8511 447.731 74.8511C458.288 74.8511 467.273 68.1883 470.774 58.8439H458.548C456.032 62.0453 452.134 64.1112 447.744 64.1112C440.141 64.1112 433.986 57.9409 433.986 50.3477C433.986 42.7408 440.154 36.5842 447.744 36.5842C453.201 36.5842 457.905 39.7719 460.121 44.3689H448.961L440.072 53.2618H472.128C472.265 52.2768 472.347 51.2643 472.347 50.2382C472.347 36.6252 461.338 25.598 447.731 25.598Z" fill="#898989"/>
<path d="M328.3 0C307.636 0 290.883 16.7598 290.883 37.4324C290.883 58.1051 307.636 74.8648 328.3 74.8648C348.964 74.8648 365.717 58.1051 365.717 37.4324C365.717 16.7598 348.964 0 328.3 0ZM328.3 61.9085C314.802 61.9085 303.821 50.9223 303.821 37.4187C303.821 23.9152 314.802 12.929 328.3 12.929C341.798 12.929 352.78 23.9152 352.78 37.4187C352.78 50.9223 341.798 61.9085 328.3 61.9085Z" fill="#898989"/>
<path d="M411.107 25.598H383.961H372.131V37.4324V49.2669V61.1013V73.1957H383.961V61.1013V49.2669V37.4324V36.6252H405.185V49.2669V61.1013V73.1957H417.015V61.1013V49.2669V37.4324V31.522C417.015 28.2385 414.362 25.598 411.107 25.598Z" fill="#898989"/>
<path d="M114.876 37.6924V49.5268V61.3612V62.1684H93.6516V49.5268V37.6924V25.598H81.8221V37.6924V49.5268V61.3612V67.2716C81.8221 70.5415 84.4751 73.182 87.73 73.182H114.876H126.706V61.3476V49.5268V37.6924V25.598H114.876V37.6924Z" fill="#898989"/>
<path d="M187.235 25.598V37.4324V49.2669V61.1013V73.1957H199.064V61.1013V49.2669V37.4324H212.535V25.598H199.064H187.235Z" fill="#898989"/>
<path d="M167.624 25.598H146.864H134.569V37.4324H146.864H167.624V37.6924V42.2893H146.399H140.477C137.209 42.2893 134.569 44.9435 134.569 48.1997V54.1238V56.6685V62.1821V67.6957V73.2094H134.651H146.481H167.624H168.745H179.453V61.3749V49.5268V37.6924V25.598H169.128H167.624ZM146.467 61.3612H146.385V56.6685V54.1238H167.61V61.3612H146.467Z" fill="#898989"/>
<path d="M283.827 13.9687H271.997V33.6974V43.5617V53.426V63.2903V73.1957H283.827V63.2903V53.426V43.5617V33.6974V13.9687V2.1343H271.997L283.827 13.9687Z" fill="#898989"/>
<path d="M470.966 13.4352C470.966 11.7934 469.667 11.1777 468.244 11.1777H465.618V18.2374H467.041V15.7884H468.436L469.666 18.2374H471.239L469.625 15.3643C470.405 15.0769 470.966 14.2697 470.966 13.4352ZM467.93 14.7075H467.027V12.3817H467.984C469.037 12.3817 469.407 12.8469 469.407 13.5309C469.42 14.2971 468.86 14.7075 467.93 14.7075Z" fill="#898989"/>
<path d="M468.066 7.77106C464.237 7.77106 461.133 10.8767 461.133 14.7075C461.133 18.5383 464.237 21.644 468.066 21.644C471.896 21.644 475 18.5383 475 14.7075C475 10.8767 471.896 7.77106 468.066 7.77106ZM468.066 20.2485C465.003 20.2485 462.514 17.7585 462.514 14.6939C462.514 11.6292 465.003 9.1392 468.066 9.1392C471.13 9.1392 473.619 11.6292 473.619 14.6939C473.619 17.7585 471.13 20.2485 468.066 20.2485Z" fill="#898989"/>
<path d="M12.9373 37.4324C12.9373 23.9288 23.9189 12.9426 37.4169 12.9426C43.3658 12.9426 48.8224 15.0769 53.0619 18.6204L62.2384 9.44019C55.633 3.57085 46.9352 0 37.4169 0C16.7528 0 0 16.7598 0 37.4324C0 46.9684 3.56937 55.6561 9.43627 62.2642L18.6127 53.084C15.0707 48.829 12.9373 43.3702 12.9373 37.4324Z" fill="#898989"/>
<path d="M74.5192 32.9175H62.1563H61.4588H45.9505L34.121 44.752H39.8785H60.7477C57.6296 54.6847 48.3438 61.9085 37.3895 61.9085C31.673 61.9085 26.4079 59.9247 22.2368 56.6138L13.033 65.8214C19.5837 71.4445 28.0763 74.8511 37.3758 74.8511C58.0399 74.8511 74.7927 58.0914 74.7927 37.4187C74.8201 35.9001 74.697 34.3951 74.5192 32.9175Z" fill="url(#paint0_linear)"/>
<path d="M420.844 94.3061H418.451V108.507H420.844V94.3061Z" fill="#DF4647"/>
<path d="M467.328 108.521V94.3061H464.935V105.251L455.676 94.3061H453.119V108.521H455.526V97.9044L464.784 108.521H467.328Z" fill="#DF4647"/>
<path d="M409.903 94.3061H395.708V96.7141H401.602V108.507H404.009V96.7141H409.903V94.3061Z" fill="#DF4647"/>
<path d="M386.272 108.507H389.062L383.372 94.3061H380.801L375.126 108.507H377.888L382.087 97.6991L386.272 108.507Z" fill="#DF4647"/>
<path d="M436.995 96.2215C439.853 96.2215 442.178 98.5474 442.178 101.407C442.178 104.266 439.853 106.592 436.995 106.592C434.137 106.592 431.812 104.266 431.812 101.407C431.798 98.5474 434.123 96.2215 436.995 96.2215ZM436.995 93.8273C432.81 93.8273 429.405 97.2203 429.405 101.42C429.405 105.607 432.797 109.014 436.995 109.014C441.18 109.014 444.585 105.621 444.585 101.42C444.571 97.2203 441.18 93.8273 436.995 93.8273Z" fill="#DF4647"/>
<path d="M368.466 94.3061H354.27V96.7141H360.178V108.521H362.572V96.7141H368.466V94.3061Z" fill="#DF4647"/>
<path d="M300.224 101.407V94.3061H297.831V101.407C297.831 104.006 295.725 106.113 293.126 106.113C290.528 106.113 288.422 104.006 288.422 101.407V94.3061H286.028V101.407C286.028 105.333 289.201 108.507 293.126 108.507C297.051 108.507 300.224 105.333 300.224 101.407Z" fill="#DF4647"/>
<path d="M277.467 104.417C277.467 102.2 275.69 100.381 273.488 100.326H267.238C266.24 100.258 265.446 99.4367 265.446 98.4243C265.446 97.4118 266.24 96.5773 267.238 96.5089H267.361H276.907V94.3198H267.238C265.036 94.3882 263.258 96.1942 263.258 98.4243C263.258 100.682 265.091 102.515 267.347 102.529H273.365C274.418 102.529 275.279 103.391 275.279 104.444C275.279 105.457 274.486 106.291 273.501 106.359H273.378H263.833V108.549H273.378C275.635 108.521 277.467 106.674 277.467 104.417Z" fill="#DF4647"/>
<path d="M345.723 104.417C345.723 102.2 343.945 100.381 341.743 100.326H335.494C334.495 100.258 333.702 99.4367 333.702 98.4243C333.702 97.4118 334.495 96.5773 335.494 96.5089H335.617H345.162V94.3198H335.494C333.292 94.3882 331.514 96.1942 331.514 98.4243C331.514 100.682 333.347 102.515 335.603 102.529H341.62C342.673 102.529 343.535 103.391 343.535 104.444C343.535 105.457 342.742 106.291 341.757 106.359H341.634H332.088V108.549H341.634C343.877 108.521 345.723 106.674 345.723 104.417Z" fill="#DF4647"/>
<path d="M322.967 98.4653C322.967 96.1668 321.107 94.3198 318.823 94.3198H309.975H308.771V108.521H309.975H311.178H318.837C321.134 108.521 322.98 106.66 322.98 104.376C322.98 103.226 322.502 102.173 321.75 101.42C322.502 100.668 322.967 99.6145 322.967 98.4653ZM318.823 106.373H310.918V102.365H318.823C319.931 102.365 320.82 103.267 320.82 104.362C320.82 105.47 319.931 106.373 318.823 106.373ZM319.069 100.449L318.823 100.463H310.918V96.4541H318.932C319.999 96.5225 320.82 97.3981 320.82 98.4516C320.82 99.4777 320.081 100.326 319.069 100.449Z" fill="#DF4647"/>
</g>
<defs>
<linearGradient id="paint0_linear" x1="23.7281" y1="85.8806" x2="67.3346" y2="25.0071" gradientUnits="userSpaceOnUse">
<stop offset="0.1126" stop-color="#DF4647"/>
<stop offset="0.8648" stop-color="#FF979E"/>
</linearGradient>
<clipPath id="clip0">
<rect width="475" height="109" fill="white"/>
</clipPath>
</defs>
</svg>
