<?xml version="1.0" encoding="utf-8"?>
<!-- Generator: Adobe Illustrator 25.2.2, SVG Export Plug-In . SVG Version: 6.00 Build 0)  -->
<svg version="1.1" id="레이어_1" xmlns="http://www.w3.org/2000/svg" xmlns:xlink="http://www.w3.org/1999/xlink" width="88px"
	 height="79px" viewBox="0 0 88 79" style="enable-background:new 0 0 88 79;" xml:space="preserve">
<style type="text/css">
	.st0{opacity:0.5;}
	.st1{opacity:0.5;fill:#4E4E4E;}
	.st2{fill:#4E4E4E;}
	.st3{fill:#FFFFFF;stroke:#A7A0A0;}
	.st4{fill:#A7A0A0;stroke:#FFFFFF;}
</style>
<g>
	<g class="st0">
		<path class="st1" d="M12.2,39.2c0.5,0,1.1-0.2,1.5-0.6l2.3-2.3c0.9-0.9,0.9-2.4,0-3.4c-0.5-0.5-0.5-1.3,0.1-1.9l1.3-1.3
			c0,0,0.2,0,0.2,0c1.1,1.1,2.9,1.4,4.3,0.6l9.3-9.3l0.1-0.1c0.6-1.1,0.3-2.5-0.6-3.4l-5.3-5.3C30.6,6.1,37,5.8,37.1,5.8l0.2,0
			l1.7-1.7l-0.5-0.3c-7.5-4.6-17.6,3.6-18,4l-9.8,9.8c-1.4,1.4-1.4,3.7,0,5.1c0,0,0,0.2,0,0.2l-1.3,1.3c-0.6,0.6-1.3,0.6-1.9,0.1
			c-0.9-0.9-2.5-0.9-3.4,0l-2.3,2.3c-0.8,0.8-0.8,2.2,0,3l8.9,8.9C11.1,39,11.6,39.2,12.2,39.2z"/>
		<path class="st1" d="M32.3,68.7C32.3,68.7,32.3,68.7,32.3,68.7L32.3,68.7L32.3,68.7z M32.6,68C32.6,68,32.6,68,32.6,68L32.6,68
			L32.6,68z"/>
		<path class="st1" d="M53,43.6l-8.9,8.9l19.9,19.9c0.8,0.8,1.8,1.2,2.9,1.2c1,0,2.1-0.4,2.9-1.2l3.1-3.1c1.6-1.6,1.6-4.2,0-5.7
			L53,43.6z"/>
		<path class="st1" d="M59.4,33.8c-1.8-0.7-3.4-1.8-4.8-3.2l-0.2-0.2c-1.2-1.3-2.2-2.8-2.9-4.4l-0.3-0.7L26,50.4l0.7,0.3
			c1.8,0.7,3.3,1.8,4.7,3.1l0.2,0.2c1.2,1.3,2.3,2.9,2.9,4.6l0.3,0.7l25.2-25.2L59.4,33.8z"/>
		
			<rect x="26.2" y="25.2" transform="matrix(0.7071 -0.7071 0.7071 0.7071 -13.0722 32.3285)" class="st1" width="12.5" height="13.4"/>
		<g class="st0">
			<path class="st2" d="M21.9,50.9c-3.5-0.1-6.8,1.2-9.2,3.7c-2.2,2.2-3.5,5.1-3.7,8.2c0,0.6,0.3,1.1,0.8,1.3
				c0.5,0.2,1.1,0.1,1.5-0.3l3.6-3.6l6.1-0.2l4.1,4.1L25,70.2l-3.6,3.6c-0.4,0.4-0.5,1-0.3,1.5c0.2,0.5,0.7,0.8,1.3,0.8
				c0,0,0.1,0,0.1,0c3.2-0.2,6.1-1.5,8.3-3.8c4.6-4.7,4.7-12.6,0.2-17.4C28.6,52.4,25.4,50.9,21.9,50.9z"/>
			<path class="st2" d="M77,19.3c-0.5-0.2-1.1-0.1-1.5,0.3l-3.6,3.6l-6.1,0.2l-4.1-4.1l0.2-6.1l3.6-3.6c0.4-0.4,0.5-1,0.3-1.5
				c-0.2-0.5-0.8-0.8-1.3-0.8c-3.2,0.2-6.1,1.5-8.3,3.8c-4.6,4.7-4.7,12.6-0.2,17.4c2.4,2.6,5.6,4,9.1,4.1c0.1,0,0.2,0,0.3,0
				c3.4,0,6.6-1.3,9-3.7c2.2-2.2,3.5-5.1,3.7-8.2C77.8,20.1,77.5,19.6,77,19.3z"/>
		</g>
	</g>
	<g>
		<path class="st3" d="M15.4,36.2l2.3-2.3c0.7-0.7,0.7-1.9,0-2.7c-0.7-0.7-0.6-1.8,0.1-2.6l1.3-1.3c0.3-0.3,0.7-0.3,0.9,0
			c1,1,2.5,1.2,3.7,0.5l9.2-9.2c0.4-0.9,0.3-2.1-0.5-2.8l-5.7-5.7c5.5-6.8,12.3-6.9,12.3-6.9l1.1-1.1c-7.3-4.5-17.4,4-17.4,4
			L13,15.8c-1.2,1.2-1.2,3.2,0,4.4c0.3,0.3,0.3,0.7,0,0.9l-1.3,1.3c-0.7,0.7-1.8,0.8-2.6,0.1c-0.7-0.7-1.9-0.7-2.7,0l-2.3,2.3
			c-0.6,0.6-0.6,1.7,0,2.3l8.9,8.9C13.8,36.8,14.8,36.8,15.4,36.2z"/>
		<path class="st4" d="M55.1,42.2L47,50.4l19.5,19.5c1.4,1.4,3.6,1.4,5,0l3.1-3.1c1.4-1.4,1.4-3.6,0-5L55.1,42.2z"/>
		<path class="st4" d="M53.2,40.3L53.2,40.3l8.1-8.1c-1.9-0.8-3.6-1.9-5-3.3c-0.1-0.1-0.2-0.2-0.3-0.3c-1.3-1.3-2.3-2.9-3-4.6
			L45,32.1h0l-4.1,4.1L29,48.1c1.8,0.7,3.4,1.8,4.8,3.2l0,0c0.1,0.1,0.2,0.2,0.3,0.3c1.3,1.4,2.3,3,3,4.7l7.9-7.9l0,0L53.2,40.3z"/>
		
			<rect x="28.8" y="23.6" transform="matrix(0.7071 -0.7071 0.7071 0.7071 -10.9745 33.2025)" class="st4" width="11.5" height="12.4"/>
	</g>
	<path class="st4" d="M12.7,61.8l3.8-3.8l6.5-0.2l4.4,4.4l-0.2,6.5l-3.8,3.8c-0.6,0.6-0.1,1.5,0.7,1.5c2.9-0.2,5.8-1.4,8-3.6
		c4.5-4.6,4.6-12.1,0.2-16.7c-4.7-5.1-12.7-5.2-17.6-0.4c-2.2,2.2-3.4,5-3.5,7.9C11.1,62,12.1,62.4,12.7,61.8z"/>
	<path class="st4" d="M77.4,18.3l-3.8,3.8l-6.5,0.2l-4.4-4.4l0.2-6.5l3.8-3.8c0.6-0.6,0.1-1.5-0.7-1.5c-2.9,0.2-5.8,1.4-8,3.6
		c-4.5,4.6-4.6,12.1-0.2,16.7c4.7,5.1,12.7,5.2,17.6,0.4c2.2-2.2,3.4-5,3.5-7.9C78.9,18.2,78,17.8,77.4,18.3z"/>
</g>
</svg>
